<svg xmlns="http://www.w3.org/2000/svg" viewBox="0 0 384 384" xmlns:v="https://vecta.io/nano"><path d="M357.2 67.7s.1-6.4-.8-11.2-9.5-11.3-15-9c-5.4.6-41.5 28.2-71.2 26.2-30.4-2-82.7-62.4-192.1 4.1l-2.7-19.6c6.7-5.9 11-14.6 11-24.3C86.4 16.1 72 1.7 54.2 1.7S22 16.1 22 33.9c0 12 6.5 22.4 16.2 28l40.7 306.5h.2c1.7 8.9 9.5 15.6 18.9 15.6 10.1 0 18.4-7.9 19.1-17.8h.1v-.4-1c0-2.1-.4-4.2-1-6.1l-16.1-118.9c22.4-10.7 52.8-25.6 88.4-22.1 24.4 2.4 39.6 15.1 59.2 22.5 39.2 14.9 83-7.7 107.2-23.2.2-.5 1.3-1.3 1.5-3 2.6-23 .8-146.3.8-146.3z"/></svg>