<svg version="1.1" id="Layer_1" xmlns="http://www.w3.org/2000/svg" xmlns:xlink="http://www.w3.org/1999/xlink" x="0px" y="0px"
    viewBox="0 0 1920 1920" xml:space="preserve">

<path class="st0" d="M1279.6,479.1h-198.4l56.7-116.7H972L862.1,569.2l28-93.7H747.5c-9.4,0-18.7,2.4-27.1,7
	c-8,4.4-14.8,11-19.8,19.2L452.5,931.7c-3.9,6.3-6.1,13.8-6.1,21.4c0,7.7,2.1,15.2,6.1,21.4l252.4,435.5
	c4.9,8.3,11.7,15.1,19.7,19.6c8.4,4.8,17.7,7.4,27.2,7.5h150.6l71.4-105.5l-106.3,225.9h167.8l60.1-120.4h192.9l222.8-394.9
	c4.8-8.1,7.4-17.6,7.4-27.3c0-9.7-2.7-19.2-7.6-27.3c-5.1-8.6-12.2-15.5-20.5-20.1c-8.7-4.9-18.3-7.5-28-7.6h-303.5l-93.7,141.5
	l221.3,2.2l-93.6,163.3H832.4c-4.1-0.1-8.1-1.2-11.8-3.2c-3.5-1.9-6.6-4.7-8.9-8.2L635.7,969.3c-3.1-4.9-4.7-10.7-4.7-16.6
	s1.7-11.8,4.7-16.6l168.7-281.8c3.3-5.4,7.7-9.8,13-12.7c5.5-3.1,11.5-4.7,17.7-4.8h359L1279.6,479.1z"/>
</svg>
