<svg width="30" height="30" viewBox="0 0 30 30" fill="none" xmlns="http://www.w3.org/2000/svg">
<path d="M24.1667 14.1667H5.83333C5.3731 14.1667 5 14.5398 5 15.0001C5 15.4603 5.3731 15.8334 5.83333 15.8334H24.1667C24.6269 15.8334 25 15.4603 25 15.0001C25 14.5398 24.6269 14.1667 24.1667 14.1667Z" fill="#DEA36D"/>
<path d="M24.1667 8.33325H5.83333C5.3731 8.33325 5 8.70635 5 9.16659C5 9.62682 5.3731 9.99992 5.83333 9.99992H24.1667C24.6269 9.99992 25 9.62682 25 9.16659C25 8.70635 24.6269 8.33325 24.1667 8.33325Z" fill="#DEA36D"/>
<path d="M24.1667 20H5.83333C5.3731 20 5 20.3731 5 20.8333C5 21.2936 5.3731 21.6667 5.83333 21.6667H24.1667C24.6269 21.6667 25 21.2936 25 20.8333C25 20.3731 24.6269 20 24.1667 20Z" fill="#DEA36D"/>
</svg>
