<svg width="27" height="30" viewBox="0 0 27 30" fill="none" xmlns="http://www.w3.org/2000/svg">
<path d="M13.2692 15C14.1371 14.9999 14.9734 15.3259 15.6123 15.9134C16.2512 16.5008 16.646 17.3069 16.7186 18.1718C16.7912 19.0366 16.5362 19.8972 16.0042 20.5829C15.4722 21.2687 14.7019 21.7295 13.8461 21.8741V24.8077C13.8461 24.9607 13.7854 25.1074 13.6772 25.2156C13.569 25.3238 13.4222 25.3846 13.2692 25.3846C13.1162 25.3846 12.9695 25.3238 12.8613 25.2156C12.7531 25.1074 12.6923 24.9607 12.6923 24.8077V21.8741C11.8365 21.7295 11.0663 21.2687 10.5342 20.5829C10.0022 19.8972 9.74723 19.0366 9.81981 18.1718C9.8924 17.3069 10.2873 16.5008 10.9261 15.9134C11.565 15.3259 12.4013 14.9999 13.2692 15ZM13.2692 20.7692C13.7256 20.7692 14.1718 20.6339 14.5513 20.3803C14.9308 20.1267 15.2266 19.7663 15.4012 19.3447C15.5759 18.923 15.6216 18.459 15.5326 18.0113C15.4435 17.5637 15.2237 17.1525 14.901 16.8298C14.5783 16.507 14.1671 16.2872 13.7194 16.1982C13.2718 16.1091 12.8078 16.1548 12.3861 16.3295C11.9644 16.5042 11.604 16.8 11.3504 17.1795C11.0969 17.559 10.9615 18.0051 10.9615 18.4615C10.9622 19.0734 11.2056 19.6599 11.6382 20.0926C12.0708 20.5252 12.6574 20.7685 13.2692 20.7692ZM1.73076 10.3846H17.8846V5.76923C17.8846 4.54515 17.3983 3.37121 16.5328 2.50566C15.6672 1.64011 14.4933 1.15385 13.2692 1.15385C12.0451 1.15385 10.8712 1.64011 10.0057 2.50566C9.1401 3.37121 8.65384 4.54515 8.65384 5.76923C8.65384 5.92224 8.59305 6.06898 8.48486 6.17718C8.37667 6.28537 8.22992 6.34615 8.07691 6.34615C7.9239 6.34615 7.77716 6.28537 7.66896 6.17718C7.56077 6.06898 7.49999 5.92224 7.49999 5.76923C7.49999 4.23914 8.10782 2.77171 9.18976 1.68977C10.2717 0.607828 11.7391 0 13.2692 0C14.7993 0 16.2667 0.607828 17.3487 1.68977C18.4306 2.77171 19.0385 4.23914 19.0385 5.76923V10.3846H24.8077C25.2666 10.3851 25.7065 10.5677 26.0309 10.8921C26.3554 11.2166 26.5379 11.6565 26.5385 12.1154V28.2692C26.5379 28.7281 26.3554 29.168 26.0309 29.4925C25.7065 29.817 25.2666 29.9995 24.8077 30H1.73076C1.27189 29.9995 0.831966 29.817 0.507498 29.4925C0.183029 29.168 0.000513077 28.7281 -1.14441e-05 28.2692V12.1154C0.000513077 11.6565 0.183029 11.2166 0.507498 10.8921C0.831966 10.5677 1.27189 10.3851 1.73076 10.3846ZM1.15384 28.2692C1.15401 28.4222 1.21485 28.5688 1.323 28.677C1.43116 28.7851 1.5778 28.846 1.73076 28.8462H24.8077C24.9606 28.846 25.1073 28.7851 25.2154 28.677C25.3236 28.5688 25.3844 28.4222 25.3846 28.2692V12.1154C25.3844 11.9624 25.3236 11.8158 25.2154 11.7076C25.1073 11.5995 24.9606 11.5386 24.8077 11.5385H1.73076C1.5778 11.5386 1.43116 11.5995 1.323 11.7076C1.21485 11.8158 1.15401 11.9624 1.15384 12.1154V28.2692Z" fill="#DEA36D"/>
</svg>
