<svg width="37" height="37" viewBox="0 0 37 37" fill="none" xmlns="http://www.w3.org/2000/svg">
<path d="M33.3 4.16252C33.3 3.85419 32.9916 3.70002 32.6833 3.54585C26.825 2.00419 20.5041 4.00835 16.65 8.63335L14.6458 10.9459L10.4833 9.86669C8.78747 9.25002 7.09164 10.0209 6.32081 11.5625L3.08331 17.2667C3.08331 17.2667 3.08331 17.4209 2.92914 17.4209C2.77497 17.8834 3.08331 18.1917 3.54581 18.3459L8.78747 19.425C8.32497 20.8125 7.86247 22.2 7.70831 23.5875C7.70831 23.8959 7.70831 24.05 7.86247 24.2042L12.4875 28.675C12.6416 28.8292 12.7958 28.8292 13.1041 28.8292C14.4916 28.675 16.0333 28.3667 17.4208 27.9042L18.5 32.9917C18.5 33.3 18.9625 33.6084 19.2708 33.6084C19.425 33.6084 19.5791 33.6084 19.5791 33.4542L25.2833 30.2167C26.6708 29.4459 27.2875 27.75 26.9791 26.2084L25.9 21.7375L28.0583 19.7334C32.8375 16.1875 34.8416 10.0209 33.3 4.16252ZM4.93331 17.1125L7.55414 12.3334C8.01664 11.4084 8.94164 11.1 9.86664 11.4084L13.4125 12.3334L11.8708 14.1834C10.9458 15.4167 10.0208 16.65 9.40414 18.0375L4.93331 17.1125ZM24.6666 29.2917L19.8875 32.0667L18.9625 27.5958C20.35 26.9792 21.5833 26.0542 22.8166 25.1292L24.8208 23.2792L25.7458 26.825C25.7458 27.75 25.4375 28.8292 24.6666 29.2917ZM27.1333 18.9625L21.7375 23.8959C19.425 25.9 16.4958 27.1334 13.4125 27.4417L9.40414 23.4334C9.86664 20.35 11.1 17.4209 13.1041 15.1084L15.5708 12.3334L15.725 12.1792L17.8833 9.71252C21.275 5.70419 26.825 3.85419 31.9125 4.93335C32.9916 10.175 31.2958 15.5709 27.1333 18.9625ZM25.2833 8.63335C23.5875 8.63335 22.3541 10.0209 22.3541 11.5625C22.3541 13.1042 23.7416 14.4917 25.2833 14.4917C26.9791 14.4917 28.2125 13.1042 28.2125 11.5625C28.2125 10.0209 26.9791 8.63335 25.2833 8.63335ZM25.2833 13.1042C24.5125 13.1042 23.8958 12.4875 23.8958 11.7167C23.8958 10.9459 24.5125 10.3292 25.2833 10.3292C26.0541 10.3292 26.6708 10.9459 26.6708 11.7167C26.6708 12.4875 26.0541 13.1042 25.2833 13.1042Z" fill="#DEA36D"/>
</svg>
