<svg width="35" height="35" viewBox="0 0 35 35" fill="none" xmlns="http://www.w3.org/2000/svg">
<path d="M10.9375 34.2723H0.729167C0.53578 34.2723 0.350313 34.1955 0.213568 34.0587C0.0768227 33.922 0 33.7365 0 33.5431V16.0431C0 15.8497 0.0768227 15.6643 0.213568 15.5275C0.350313 15.3908 0.53578 15.314 0.729167 15.314H10.9375C11.1309 15.314 11.3164 15.3908 11.4531 15.5275C11.5898 15.6643 11.6667 15.8497 11.6667 16.0431V33.5431C11.6667 33.7365 11.5898 33.922 11.4531 34.0587C11.3164 34.1955 11.1309 34.2723 10.9375 34.2723ZM1.45833 32.814H10.2083V16.7723H1.45833V32.814Z" fill="#DEA36D"/>
<path d="M28.8021 32.814H15.3125C13.9635 32.814 11.5135 32.2336 10.4212 31.1428C10.2884 31.0053 10.2149 30.8211 10.2166 30.6299C10.2182 30.4387 10.2949 30.2558 10.4301 30.1206C10.5653 29.9854 10.7482 29.9088 10.9394 29.9071C11.1306 29.9054 11.3148 29.9789 11.4523 30.1118C12.1421 30.8015 14.1269 31.3572 15.311 31.3572H28.8006C29.8054 31.3572 30.6235 30.539 30.6235 29.5343C30.6235 29.0326 30.4194 28.563 30.0475 28.2115C29.9465 28.1164 29.8748 27.9943 29.8409 27.8597C29.807 27.7252 29.8122 27.5837 29.8561 27.452C29.8999 27.3204 29.9805 27.204 30.0883 27.1166C30.1961 27.0292 30.3267 26.9745 30.4646 26.9588C30.9082 26.9092 31.3182 26.6983 31.6166 26.3663C31.915 26.0343 32.0811 25.6042 32.0833 25.1578C32.0833 24.6561 31.8791 24.1865 31.5073 23.8351C31.4063 23.7399 31.3346 23.6178 31.3007 23.4833C31.2668 23.3487 31.272 23.2072 31.3159 23.0756C31.3597 22.9439 31.4403 22.8275 31.5481 22.7401C31.6559 22.6527 31.7865 22.598 31.9244 22.5824C32.3677 22.533 32.7775 22.3224 33.0757 21.9906C33.3739 21.6588 33.5397 21.2289 33.5416 20.7828C33.5416 20.1032 33.1596 19.4849 32.5441 19.1699C32.4282 19.1118 32.3299 19.0236 32.2596 18.9146C32.1893 18.8056 32.1496 18.6798 32.1445 18.5501C32.1395 18.4205 32.1693 18.292 32.2308 18.1778C32.2924 18.0636 32.3835 17.9681 32.4946 17.9011C33.1494 17.4957 33.5416 16.8015 33.5416 16.0432C33.5416 14.8372 32.5602 13.8557 31.3541 13.8557H21.1458C21.028 13.8551 20.9121 13.8261 20.8079 13.7711C20.7037 13.7162 20.6143 13.6368 20.5473 13.5399C20.4803 13.443 20.4377 13.3314 20.423 13.2145C20.4084 13.0976 20.4222 12.9788 20.4633 12.8684C20.4779 12.829 21.875 9.12925 21.875 6.56405C21.875 4.17675 19.7575 2.18905 18.9583 2.18905C18.3298 2.18905 17.8033 2.418 17.5 2.58571V7.29321C17.4998 7.39846 17.477 7.50242 17.4329 7.598L13.0579 17.0772C12.9882 17.2272 12.87 17.3494 12.7225 17.4243L11.2641 18.1534C11.1784 18.1962 11.0852 18.2217 10.9896 18.2285C10.894 18.2352 10.7981 18.2231 10.7072 18.1927C10.6164 18.1624 10.5324 18.1145 10.46 18.0517C10.3877 17.9889 10.3284 17.9125 10.2856 17.8268C10.2428 17.7411 10.2173 17.6478 10.2106 17.5522C10.2038 17.4566 10.2159 17.3607 10.2463 17.2698C10.2766 17.179 10.3245 17.095 10.3873 17.0226C10.4501 16.9503 10.5266 16.891 10.6123 16.8482L11.8416 16.2343L16.0416 7.1328V2.18905C16.0416 1.96738 16.1423 1.75884 16.3158 1.61884C17.0825 1.05448 18.0064 0.743952 18.9583 0.730713C20.6456 0.730713 23.3333 3.40092 23.3333 6.56405C23.3333 8.55905 22.6187 11.0426 22.1739 12.3974H31.3541C33.3637 12.3974 35 14.0336 35 16.0432C35 16.9634 34.6573 17.8268 34.0521 18.4859C34.6514 19.0882 35 19.9063 35 20.7828C34.9995 21.3881 34.8308 21.9813 34.5128 22.4963C34.1947 23.0114 33.7399 23.4279 33.1989 23.6995C33.5841 24.4733 33.647 25.3682 33.3736 26.1882C33.1003 27.0083 32.5131 27.6865 31.7406 28.0745C31.9875 28.5748 32.1029 29.1298 32.076 29.687C32.0491 30.2443 31.8807 30.7856 31.5867 31.2598C31.2927 31.7339 30.8828 32.1255 30.3956 32.3974C29.9084 32.6693 29.36 32.8127 28.8021 32.814Z" fill="#DEA36D"/>
</svg>
