<svg width="30" height="29" viewBox="0 0 30 29" fill="none" xmlns="http://www.w3.org/2000/svg">
<path d="M24.8025 20.9384L19.617 18.728C21.372 17.4406 22.5 15.4356 22.5 13.183C22.5 9.29829 19.143 6.14802 15 6.14802C10.8585 6.14802 7.5 9.29829 7.5 13.183C7.5 15.4356 8.628 17.4406 10.3845 18.728L5.199 20.9384C4.7055 21.1495 4.272 21.4548 3.924 21.8304C2.3955 19.7776 1.5 17.2816 1.5 14.59C1.5 7.59723 7.545 1.92702 15 1.92702C22.4565 1.92702 28.5 7.59723 28.5 14.59C28.5 17.2816 27.6045 19.7776 26.0775 21.8304C25.7295 21.4548 25.296 21.1495 24.8025 20.9384ZM9 13.183C9 10.075 11.6865 7.55502 15 7.55502C18.3135 7.55502 21 10.075 21 13.183C21 16.2911 18.3135 18.811 15 18.811C11.6865 18.811 9 16.2911 9 13.183ZM15 27.253C10.9695 27.253 7.353 25.597 4.878 22.9701C5.109 22.6451 5.433 22.3834 5.82 22.2202L11.943 19.6088C12.876 19.9999 13.911 20.218 15 20.218C16.089 20.218 17.124 19.9999 18.0585 19.6088L24.1815 22.2202C24.567 22.3834 24.891 22.6451 25.122 22.9701C22.6485 25.597 19.0305 27.253 15 27.253ZM15 0.52002C6.7155 0.52002 0 6.81916 0 14.59C0 22.3609 6.7155 28.66 15 28.66C23.2845 28.66 30 22.3609 30 14.59C30 6.81916 23.2845 0.52002 15 0.52002Z" fill="#DEA36D"/>
</svg>
